# xmcd
#
# Track frame offsets:
#	182
#	11982
#	27282
#
# Disc length: 669 seconds
#
# Revision: 0
# Processed by: cddbd v1.5.2PL0 Copyright (c) Steve Scherf et al.
# Submitted via: audiograbber 1.83.01
#
DISCID=1d029b03
DTITLE=Truck Stop - Howdy Howdy
DYEAR=1993
DGENRE=Country
TTITLE0=Howdy Howdy
TTITLE1=1000 Meilen Staub auf unseren Stiefeln 
TTITLE2=Truck Stop Schmuse-Medley
EXTD=
EXTT0=
EXTT1=
EXTT2=
PLAYORDER=
